<mxfile host="app.diagrams.net" agent="Mozilla/5.0 (Windows NT 10.0; Win64; x64) AppleWebKit/537.36 (KHTML, like Gecko) Chrome/135.0.0.0 Safari/537.36" version="26.2.8">
  <diagram name="Page-1" id="kgTiweDGEHmInlIFQQvb">
    <mxGraphModel dx="1615" dy="417" grid="1" gridSize="10" guides="1" tooltips="1" connect="1" arrows="1" fold="1" page="1" pageScale="1" pageWidth="827" pageHeight="1169" math="0" shadow="0">
      <root>
        <mxCell id="0" />
        <mxCell id="1" parent="0" />
        <mxCell id="8SVQ5JOcCkDEfFwIEUKS-1" value="" style="rounded=0;whiteSpace=wrap;html=1;" vertex="1" parent="1">
          <mxGeometry x="280" y="30" width="460" height="280" as="geometry" />
        </mxCell>
        <mxCell id="8SVQ5JOcCkDEfFwIEUKS-14" value="" style="rounded=0;whiteSpace=wrap;html=1;" vertex="1" parent="1">
          <mxGeometry x="290" y="40" width="430" height="240" as="geometry" />
        </mxCell>
        <mxCell id="8SVQ5JOcCkDEfFwIEUKS-2" value="AWS / Azure / Data Center etc." style="text;html=1;align=center;verticalAlign=middle;whiteSpace=wrap;rounded=0;fillColor=#dae8fc;strokeColor=#6c8ebf;" vertex="1" parent="1">
          <mxGeometry x="414" y="30" width="180" height="30" as="geometry" />
        </mxCell>
        <mxCell id="8SVQ5JOcCkDEfFwIEUKS-3" value="Virtual Machines / Servers" style="whiteSpace=wrap;html=1;aspect=fixed;" vertex="1" parent="1">
          <mxGeometry x="430" y="150" width="80" height="80" as="geometry" />
        </mxCell>
        <mxCell id="8SVQ5JOcCkDEfFwIEUKS-4" value="Virtual Machines / Servers" style="whiteSpace=wrap;html=1;aspect=fixed;" vertex="1" parent="1">
          <mxGeometry x="440" y="160" width="80" height="80" as="geometry" />
        </mxCell>
        <mxCell id="8SVQ5JOcCkDEfFwIEUKS-5" value="Virtual Machines / Servers" style="whiteSpace=wrap;html=1;aspect=fixed;" vertex="1" parent="1">
          <mxGeometry x="450" y="170" width="80" height="80" as="geometry" />
        </mxCell>
        <mxCell id="8SVQ5JOcCkDEfFwIEUKS-6" value="&lt;div style=&quot;text-align: left;&quot;&gt;&lt;b&gt;system admin perspective:&lt;/b&gt;&lt;/div&gt;&lt;div style=&quot;text-align: left;&quot;&gt;sshd configuration&lt;/div&gt;&lt;div style=&quot;text-align: left;&quot;&gt;entries sudo file&lt;/div&gt;&lt;div style=&quot;text-align: left;&quot;&gt;user creation&lt;/div&gt;&lt;div style=&quot;text-align: left;&quot;&gt;user acces&lt;/div&gt;&lt;div style=&quot;text-align: left;&quot;&gt;ssh files&lt;/div&gt;&lt;div&gt;&lt;br&gt;&lt;/div&gt;&lt;div&gt;&lt;br&gt;&lt;/div&gt;&lt;div style=&quot;text-align: left;&quot;&gt;&lt;b&gt;Deployment perspective:&lt;/b&gt;&lt;/div&gt;&lt;div style=&quot;text-align: left;&quot;&gt;Ngnix installation&lt;/div&gt;&lt;div style=&quot;text-align: left;&quot;&gt;Configure virtual hosts in Nginx&lt;/div&gt;&lt;div style=&quot;text-align: left;&quot;&gt;NodeJS installation&lt;/div&gt;&lt;div style=&quot;text-align: left;&quot;&gt;NPM&lt;/div&gt;&lt;div style=&quot;text-align: left;&quot;&gt;configuration files&lt;/div&gt;&lt;div style=&quot;text-align: left;&quot;&gt;monitoring agent&lt;/div&gt;&lt;div style=&quot;text-align: left;&quot;&gt;logging agents&lt;/div&gt;&lt;div&gt;&lt;br&gt;&lt;/div&gt;" style="whiteSpace=wrap;html=1;aspect=fixed;" vertex="1" parent="1">
          <mxGeometry x="430" y="340" width="340" height="340" as="geometry" />
        </mxCell>
        <mxCell id="8SVQ5JOcCkDEfFwIEUKS-7" value="Virtual Machines / Servers" style="whiteSpace=wrap;html=1;aspect=fixed;" vertex="1" parent="1">
          <mxGeometry x="310" y="50" width="100" height="100" as="geometry" />
        </mxCell>
        <mxCell id="8SVQ5JOcCkDEfFwIEUKS-8" value="Virtual Machines / Servers" style="whiteSpace=wrap;html=1;aspect=fixed;" vertex="1" parent="1">
          <mxGeometry x="580" y="90" width="80" height="80" as="geometry" />
        </mxCell>
        <mxCell id="8SVQ5JOcCkDEfFwIEUKS-9" value="Virtual Machines / Servers" style="whiteSpace=wrap;html=1;aspect=fixed;" vertex="1" parent="1">
          <mxGeometry x="320" y="170" width="80" height="80" as="geometry" />
        </mxCell>
        <mxCell id="8SVQ5JOcCkDEfFwIEUKS-10" value="Virtual Machines / Servers" style="whiteSpace=wrap;html=1;aspect=fixed;" vertex="1" parent="1">
          <mxGeometry x="630" y="160" width="80" height="80" as="geometry" />
        </mxCell>
        <mxCell id="8SVQ5JOcCkDEfFwIEUKS-12" style="edgeStyle=orthogonalEdgeStyle;rounded=0;orthogonalLoop=1;jettySize=auto;html=1;entryX=0;entryY=0.25;entryDx=0;entryDy=0;" edge="1" parent="1" source="8SVQ5JOcCkDEfFwIEUKS-11" target="8SVQ5JOcCkDEfFwIEUKS-7">
          <mxGeometry relative="1" as="geometry" />
        </mxCell>
        <mxCell id="8SVQ5JOcCkDEfFwIEUKS-13" value="Creation of Infra Comp." style="edgeLabel;html=1;align=center;verticalAlign=middle;resizable=0;points=[];" vertex="1" connectable="0" parent="8SVQ5JOcCkDEfFwIEUKS-12">
          <mxGeometry x="-0.0578" relative="1" as="geometry">
            <mxPoint as="offset" />
          </mxGeometry>
        </mxCell>
        <mxCell id="8SVQ5JOcCkDEfFwIEUKS-11" value="Terraform" style="rounded=0;whiteSpace=wrap;html=1;" vertex="1" parent="1">
          <mxGeometry x="40" y="45" width="120" height="60" as="geometry" />
        </mxCell>
        <mxCell id="8SVQ5JOcCkDEfFwIEUKS-15" value="Networks" style="text;html=1;align=center;verticalAlign=middle;whiteSpace=wrap;rounded=0;" vertex="1" parent="1">
          <mxGeometry x="640" y="40" width="60" height="30" as="geometry" />
        </mxCell>
        <mxCell id="8SVQ5JOcCkDEfFwIEUKS-16" value="Virtual Machine / Server" style="text;html=1;align=center;verticalAlign=middle;whiteSpace=wrap;rounded=0;fillColor=#fff2cc;strokeColor=#d6b656;" vertex="1" parent="1">
          <mxGeometry x="451" y="340" width="140" height="30" as="geometry" />
        </mxCell>
        <mxCell id="8SVQ5JOcCkDEfFwIEUKS-17" value="&lt;b&gt;Ansible Control Node&lt;/b&gt;&lt;div&gt;- Where we define what software to install&lt;/div&gt;&lt;div&gt;- In which servers they should be installed&lt;/div&gt;&lt;div&gt;- What should be the configuration of those softwares&lt;/div&gt;&lt;div&gt;- Whatever files which needs to present on the servers&lt;/div&gt;" style="rounded=0;whiteSpace=wrap;html=1;" vertex="1" parent="1">
          <mxGeometry x="-300" y="370" width="360" height="190" as="geometry" />
        </mxCell>
        <mxCell id="8SVQ5JOcCkDEfFwIEUKS-18" style="edgeStyle=orthogonalEdgeStyle;rounded=0;orthogonalLoop=1;jettySize=auto;html=1;entryX=-0.006;entryY=0.29;entryDx=0;entryDy=0;entryPerimeter=0;" edge="1" parent="1" source="8SVQ5JOcCkDEfFwIEUKS-17" target="8SVQ5JOcCkDEfFwIEUKS-6">
          <mxGeometry relative="1" as="geometry" />
        </mxCell>
        <mxCell id="8SVQ5JOcCkDEfFwIEUKS-19" value="Creation / Update of the server components and appl comp." style="edgeLabel;html=1;align=center;verticalAlign=middle;resizable=0;points=[];" vertex="1" connectable="0" parent="8SVQ5JOcCkDEfFwIEUKS-18">
          <mxGeometry x="-0.0913" relative="1" as="geometry">
            <mxPoint x="1" as="offset" />
          </mxGeometry>
        </mxCell>
      </root>
    </mxGraphModel>
  </diagram>
</mxfile>
